<svg xmlns="http://www.w3.org/2000/svg" width="107.034" height="68.524" viewBox="0 0 107.034 68.524">
  <g id="image" transform="translate(-160 -209)">
    <g id="smart-phone" transform="translate(-1044.8 -159.9)">
      <path id="Path_11395" data-name="Path 11395" d="M1249.52,437.424h-23.288a5.046,5.046,0,0,1-5.032-5.032v-58.46a5.046,5.046,0,0,1,5.032-5.032h23.29a5.046,5.046,0,0,1,5.032,5.032v58.46A5.049,5.049,0,0,1,1249.52,437.424Z" transform="translate(-16.059 0)" fill="#c2c1c0"/>
      <path id="Path_11396" data-name="Path 11396" d="M1320.9,438.3a5.023,5.023,0,0,1,1.441,3.516v58.46a5.046,5.046,0,0,1-5.032,5.032h-23.29a5.014,5.014,0,0,1-3.516-1.441,5.02,5.02,0,0,0,3.593,1.516h23.29a5.046,5.046,0,0,0,5.032-5.032v-58.46A5.025,5.025,0,0,0,1320.9,438.3Z" transform="translate(-83.92 -67.959)" fill="#a09f9f"/>
      <path id="Path_11397" data-name="Path 11397" d="M1221.269,432.46V374a5.046,5.046,0,0,1,5.032-5.032h23.29a5.022,5.022,0,0,1,3.52,1.443,5.017,5.017,0,0,0-3.589-1.514h-23.29a5.046,5.046,0,0,0-5.032,5.032v58.46a5.021,5.021,0,0,0,1.514,3.589A5.015,5.015,0,0,1,1221.269,432.46Z" transform="translate(-16.059)" fill="#eaeaea"/>
      <rect id="Rectangle_19013" data-name="Rectangle 19013" width="33.354" height="0.457" transform="translate(1205.138 430.232)" fill="#eaeaea"/>
      <path id="Path_11398" data-name="Path 11398" d="M1254.552,373.932a5.046,5.046,0,0,0-5.032-5.032h-23.288a5.046,5.046,0,0,0-5.032,5.032v1.958h33.354v-1.958Z" transform="translate(-16.06)" fill="none"/>
      <path id="Path_11399" data-name="Path 11399" d="M1221.1,727.6v56.042a5.046,5.046,0,0,0,5.032,5.032h23.29a5.046,5.046,0,0,0,5.032-5.032V727.6Z" transform="translate(-15.961 -351.25)" fill="none"/>
      <rect id="Rectangle_19014" data-name="Rectangle 19014" width="33.354" height="0.457" transform="translate(1205.139 375.893)" fill="#eaeaea"/>
      <rect id="Rectangle_19015" data-name="Rectangle 19015" width="0.457" height="68.524" transform="translate(1212.079 368.9)" fill="#eaeaea"/>
      <rect id="Rectangle_19016" data-name="Rectangle 19016" width="0.457" height="68.524" transform="translate(1231.097 368.9)" fill="#eaeaea"/>
      <path id="Path_11400" data-name="Path 11400" d="M1274.44,457.072h-22.208a5.046,5.046,0,0,1-5.032-5.032V394.432a5.046,5.046,0,0,1,5.032-5.032h22.21a5.046,5.046,0,0,1,5.032,5.032V452.04A5.049,5.049,0,0,1,1274.44,457.072Z" transform="translate(-41.519 -20.074)" fill="#1c1e23"/>
      <path id="Path_11401" data-name="Path 11401" d="M1320.207,441.9h-5.479v.868a1.456,1.456,0,0,1-1.452,1.452h-8.521a1.456,1.456,0,0,1-1.452-1.452V441.9h-5.574a3.94,3.94,0,0,0-3.929,3.929v57.633a3.94,3.94,0,0,0,3.929,3.929h22.478a3.94,3.94,0,0,0,3.929-3.929V445.829A3.94,3.94,0,0,0,1320.207,441.9Z" transform="translate(-87.152 -71.484)" fill="#f4f8fd"/>
      <circle id="Ellipse_916" data-name="Ellipse 916" cx="0.592" cy="0.592" r="0.592" transform="translate(1217.017 371.067) rotate(-22.5)"/>
      <circle id="Ellipse_917" data-name="Ellipse 917" cx="0.565" cy="0.565" r="0.565" transform="translate(1217.142 371.855) rotate(-80.782)" fill="#151b23"/>
      <circle id="Ellipse_918" data-name="Ellipse 918" cx="0.465" cy="0.465" r="0.465" transform="translate(1217.256 371.772) rotate(-80.782)" fill="#c9c7c8"/>
      <circle id="Ellipse_919" data-name="Ellipse 919" cx="0.432" cy="0.432" r="0.432" transform="translate(1217.306 371.76) rotate(-82.64)" fill="#0b0e13"/>
      <circle id="Ellipse_920" data-name="Ellipse 920" cx="0.39" cy="0.39" r="0.39" transform="translate(1217.261 371.557) rotate(-62.63)"/>
      <circle id="Ellipse_921" data-name="Ellipse 921" cx="0.305" cy="0.305" r="0.305" transform="translate(1217.428 371.622) rotate(-77.684)" fill="#11243e"/>
      <path id="Path_11402" data-name="Path 11402" d="M1819.082,477.337a.241.241,0,1,1-.243-.239A.238.238,0,0,1,1819.082,477.337Z" transform="translate(-601.052 -105.951)" fill="#676767"/>
      <circle id="Ellipse_922" data-name="Ellipse 922" cx="0.199" cy="0.199" r="0.199" transform="matrix(0.444, -0.896, 0.896, 0.444, 1217.521, 371.476)" fill="#172f57"/>
      <path id="Path_11403" data-name="Path 11403" d="M1825.983,484.391a.091.091,0,1,1-.091-.091A.091.091,0,0,1,1825.983,484.391Z" transform="translate(-608.103 -113.003)"/>
      <path id="Path_11404" data-name="Path 11404" d="M1829.991,479.5a.1.1,0,1,1-.1-.1A.1.1,0,0,1,1829.991,479.5Z" transform="translate(-612.02 -108.205)" fill="#fff"/>
      <path id="Path_11405" data-name="Path 11405" d="M1824.3,489.248a.048.048,0,1,1-.048-.048A.047.047,0,0,1,1824.3,489.248Z" transform="translate(-606.536 -117.802)" fill="#fff"/>
      <path id="Path_11406" data-name="Path 11406" d="M1911.706,401.778h-4.667a.139.139,0,0,1-.139-.139h0a.139.139,0,0,1,.139-.139h4.667a.139.139,0,0,1,.139.139h0A.142.142,0,0,1,1911.706,401.778Z" transform="translate(-687.519 -31.923)" fill="#2e3035"/>
      <path id="Path_11407" data-name="Path 11407" d="M1205.23,972.792h-.181a.25.25,0,0,1-.249-.249v-2.094a.25.25,0,0,1,.249-.249h.181a.25.25,0,0,1,.249.249v2.094A.25.25,0,0,1,1205.23,972.792Z" transform="translate(0 -588.812)" fill="#c2c1c0"/>
      <path id="Path_11408" data-name="Path 11408" d="M1204.835,972.676v-2.091a.25.25,0,0,1,.249-.249h.181a.248.248,0,0,1,.158.056.25.25,0,0,0-.193-.091h-.181a.25.25,0,0,0-.249.249v2.091a.249.249,0,0,0,.091.193A.261.261,0,0,1,1204.835,972.676Z" transform="translate(0 -588.91)" fill="#eaeaea"/>
      <path id="Path_11409" data-name="Path 11409" d="M1205.23,1191.424h-.181a.25.25,0,0,1-.249-.249v-4.426a.25.25,0,0,1,.249-.249h.181a.25.25,0,0,1,.249.249v4.426A.25.25,0,0,1,1205.23,1191.424Z" transform="translate(0 -800.62)" fill="#c2c1c0"/>
      <path id="Path_11410" data-name="Path 11410" d="M1204.837,1191.212v-4.426a.25.25,0,0,1,.249-.249h.181a.242.242,0,0,1,.156.056.251.251,0,0,0-.193-.094h-.181a.25.25,0,0,0-.249.249v4.426a.249.249,0,0,0,.094.193A.247.247,0,0,1,1204.837,1191.212Z" transform="translate(0 -800.62)" fill="#eaeaea"/>
      <path id="Path_11411" data-name="Path 11411" d="M1205.23,1487.424h-.181a.25.25,0,0,1-.249-.249v-4.426a.25.25,0,0,1,.249-.249h.181a.25.25,0,0,1,.249.249v4.426A.25.25,0,0,1,1205.23,1487.424Z" transform="translate(0 -1090.472)" fill="#c2c1c0"/>
      <path id="Path_11412" data-name="Path 11412" d="M1204.835,1487.21v-4.426a.25.25,0,0,1,.249-.249h.181a.248.248,0,0,1,.158.056.246.246,0,0,0-.193-.091h-.181a.25.25,0,0,0-.249.249v4.426a.249.249,0,0,0,.091.193A.252.252,0,0,1,1204.835,1487.21Z" transform="translate(0 -1090.472)" fill="#eaeaea"/>
      <path id="Path_11413" data-name="Path 11413" d="M2811.23,1267.328h-.181a.25.25,0,0,1-.249-.249v-7.329a.25.25,0,0,1,.249-.249h.181a.25.25,0,0,1,.249.249v7.329A.25.25,0,0,1,2811.23,1267.328Z" transform="translate(-1572.646 -872.103)" fill="#c2c1c0"/>
      <path id="Path_11414" data-name="Path 11414" d="M2813.124,1261.4a.235.235,0,0,1,.037.131v7.329a.25.25,0,0,1-.249.249h-.181a.254.254,0,0,1-.131-.037.25.25,0,0,0,.212.118h.181a.25.25,0,0,0,.249-.249v-7.329A.25.25,0,0,0,2813.124,1261.4Z" transform="translate(-1574.408 -873.964)" fill="#a09f9f"/>
      <g id="Rectangle_19017" data-name="Rectangle 19017" transform="translate(1216.8 433.424)" fill="#fff" stroke="#707070" stroke-width="1">
        <rect width="10.17" height="1" stroke="none"/>
        <rect x="0.5" y="0.5" width="9.17" fill="none"/>
      </g>
    </g>
    <g id="transfer_dots" data-name="transfer dots" transform="translate(60 3)">
      <circle id="Ellipse_923" data-name="Ellipse 923" cx="2" cy="2" r="2" transform="translate(142 239)" fill="#1d1e27"/>
      <circle id="Ellipse_924" data-name="Ellipse 924" cx="2" cy="2" r="2" transform="translate(148 239)" fill="#1d1e27"/>
      <circle id="Ellipse_925" data-name="Ellipse 925" cx="2" cy="2" r="2" transform="translate(154 239)" fill="#1d1e27"/>
      <circle id="Ellipse_926" data-name="Ellipse 926" cx="2" cy="2" r="2" transform="translate(160 239)" fill="#1d1e27"/>
    </g>
    <g id="smart-phone-2" data-name="smart-phone" transform="translate(-971.8 -159.9)">
      <path id="Path_11395-2" data-name="Path 11395" d="M1249.52,437.424h-23.288a5.046,5.046,0,0,1-5.032-5.032v-58.46a5.046,5.046,0,0,1,5.032-5.032h23.29a5.046,5.046,0,0,1,5.032,5.032v58.46A5.049,5.049,0,0,1,1249.52,437.424Z" transform="translate(-16.059 0)" fill="#c2c1c0"/>
      <path id="Path_11396-2" data-name="Path 11396" d="M1320.9,438.3a5.023,5.023,0,0,1,1.441,3.516v58.46a5.046,5.046,0,0,1-5.032,5.032h-23.29a5.014,5.014,0,0,1-3.516-1.441,5.02,5.02,0,0,0,3.593,1.516h23.29a5.046,5.046,0,0,0,5.032-5.032v-58.46A5.025,5.025,0,0,0,1320.9,438.3Z" transform="translate(-83.92 -67.959)" fill="#a09f9f"/>
      <path id="Path_11397-2" data-name="Path 11397" d="M1221.269,432.46V374a5.046,5.046,0,0,1,5.032-5.032h23.29a5.022,5.022,0,0,1,3.52,1.443,5.017,5.017,0,0,0-3.589-1.514h-23.29a5.046,5.046,0,0,0-5.032,5.032v58.46a5.021,5.021,0,0,0,1.514,3.589A5.015,5.015,0,0,1,1221.269,432.46Z" transform="translate(-16.059)" fill="#eaeaea"/>
      <rect id="Rectangle_19013-2" data-name="Rectangle 19013" width="33.354" height="0.457" transform="translate(1205.138 430.232)" fill="#eaeaea"/>
      <path id="Path_11398-2" data-name="Path 11398" d="M1254.552,373.932a5.046,5.046,0,0,0-5.032-5.032h-23.288a5.046,5.046,0,0,0-5.032,5.032v1.958h33.354v-1.958Z" transform="translate(-16.06)" fill="none"/>
      <path id="Path_11399-2" data-name="Path 11399" d="M1221.1,727.6v56.042a5.046,5.046,0,0,0,5.032,5.032h23.29a5.046,5.046,0,0,0,5.032-5.032V727.6Z" transform="translate(-15.961 -351.25)" fill="none"/>
      <rect id="Rectangle_19014-2" data-name="Rectangle 19014" width="33.354" height="0.457" transform="translate(1205.139 375.893)" fill="#eaeaea"/>
      <rect id="Rectangle_19015-2" data-name="Rectangle 19015" width="0.457" height="68.524" transform="translate(1212.079 368.9)" fill="#eaeaea"/>
      <rect id="Rectangle_19016-2" data-name="Rectangle 19016" width="0.457" height="68.524" transform="translate(1231.097 368.9)" fill="#eaeaea"/>
      <path id="Path_11400-2" data-name="Path 11400" d="M1274.44,457.072h-22.208a5.046,5.046,0,0,1-5.032-5.032V394.432a5.046,5.046,0,0,1,5.032-5.032h22.21a5.046,5.046,0,0,1,5.032,5.032V452.04A5.049,5.049,0,0,1,1274.44,457.072Z" transform="translate(-41.519 -20.074)" fill="#1c1e23"/>
      <path id="Path_11401-2" data-name="Path 11401" d="M1320.207,441.9h-5.479v.868a1.456,1.456,0,0,1-1.452,1.452h-8.521a1.456,1.456,0,0,1-1.452-1.452V441.9h-5.574a3.94,3.94,0,0,0-3.929,3.929v57.633a3.94,3.94,0,0,0,3.929,3.929h22.478a3.94,3.94,0,0,0,3.929-3.929V445.829A3.94,3.94,0,0,0,1320.207,441.9Z" transform="translate(-87.152 -71.484)" fill="#f4f8fd"/>
      <circle id="Ellipse_916-2" data-name="Ellipse 916" cx="0.592" cy="0.592" r="0.592" transform="translate(1217.017 371.067) rotate(-22.5)"/>
      <circle id="Ellipse_917-2" data-name="Ellipse 917" cx="0.565" cy="0.565" r="0.565" transform="translate(1217.142 371.855) rotate(-80.782)" fill="#151b23"/>
      <circle id="Ellipse_918-2" data-name="Ellipse 918" cx="0.465" cy="0.465" r="0.465" transform="translate(1217.256 371.772) rotate(-80.782)" fill="#c9c7c8"/>
      <circle id="Ellipse_919-2" data-name="Ellipse 919" cx="0.432" cy="0.432" r="0.432" transform="translate(1217.306 371.76) rotate(-82.64)" fill="#0b0e13"/>
      <circle id="Ellipse_920-2" data-name="Ellipse 920" cx="0.39" cy="0.39" r="0.39" transform="translate(1217.261 371.557) rotate(-62.63)"/>
      <circle id="Ellipse_921-2" data-name="Ellipse 921" cx="0.305" cy="0.305" r="0.305" transform="translate(1217.428 371.622) rotate(-77.684)" fill="#11243e"/>
      <path id="Path_11402-2" data-name="Path 11402" d="M1819.082,477.337a.241.241,0,1,1-.243-.239A.238.238,0,0,1,1819.082,477.337Z" transform="translate(-601.052 -105.951)" fill="#676767"/>
      <circle id="Ellipse_922-2" data-name="Ellipse 922" cx="0.199" cy="0.199" r="0.199" transform="matrix(0.444, -0.896, 0.896, 0.444, 1217.521, 371.476)" fill="#172f57"/>
      <path id="Path_11403-2" data-name="Path 11403" d="M1825.983,484.391a.091.091,0,1,1-.091-.091A.091.091,0,0,1,1825.983,484.391Z" transform="translate(-608.103 -113.003)"/>
      <path id="Path_11404-2" data-name="Path 11404" d="M1829.991,479.5a.1.1,0,1,1-.1-.1A.1.1,0,0,1,1829.991,479.5Z" transform="translate(-612.02 -108.205)" fill="#fff"/>
      <path id="Path_11405-2" data-name="Path 11405" d="M1824.3,489.248a.048.048,0,1,1-.048-.048A.047.047,0,0,1,1824.3,489.248Z" transform="translate(-606.536 -117.802)" fill="#fff"/>
      <path id="Path_11406-2" data-name="Path 11406" d="M1911.706,401.778h-4.667a.139.139,0,0,1-.139-.139h0a.139.139,0,0,1,.139-.139h4.667a.139.139,0,0,1,.139.139h0A.142.142,0,0,1,1911.706,401.778Z" transform="translate(-687.519 -31.923)" fill="#2e3035"/>
      <path id="Path_11407-2" data-name="Path 11407" d="M1205.23,972.792h-.181a.25.25,0,0,1-.249-.249v-2.094a.25.25,0,0,1,.249-.249h.181a.25.25,0,0,1,.249.249v2.094A.25.25,0,0,1,1205.23,972.792Z" transform="translate(0 -588.812)" fill="#c2c1c0"/>
      <path id="Path_11408-2" data-name="Path 11408" d="M1204.835,972.676v-2.091a.25.25,0,0,1,.249-.249h.181a.248.248,0,0,1,.158.056.25.25,0,0,0-.193-.091h-.181a.25.25,0,0,0-.249.249v2.091a.249.249,0,0,0,.091.193A.261.261,0,0,1,1204.835,972.676Z" transform="translate(0 -588.91)" fill="#eaeaea"/>
      <path id="Path_11409-2" data-name="Path 11409" d="M1205.23,1191.424h-.181a.25.25,0,0,1-.249-.249v-4.426a.25.25,0,0,1,.249-.249h.181a.25.25,0,0,1,.249.249v4.426A.25.25,0,0,1,1205.23,1191.424Z" transform="translate(0 -800.62)" fill="#c2c1c0"/>
      <path id="Path_11410-2" data-name="Path 11410" d="M1204.837,1191.212v-4.426a.25.25,0,0,1,.249-.249h.181a.242.242,0,0,1,.156.056.251.251,0,0,0-.193-.094h-.181a.25.25,0,0,0-.249.249v4.426a.249.249,0,0,0,.094.193A.247.247,0,0,1,1204.837,1191.212Z" transform="translate(0 -800.62)" fill="#eaeaea"/>
      <path id="Path_11411-2" data-name="Path 11411" d="M1205.23,1487.424h-.181a.25.25,0,0,1-.249-.249v-4.426a.25.25,0,0,1,.249-.249h.181a.25.25,0,0,1,.249.249v4.426A.25.25,0,0,1,1205.23,1487.424Z" transform="translate(0 -1090.472)" fill="#c2c1c0"/>
      <path id="Path_11412-2" data-name="Path 11412" d="M1204.835,1487.21v-4.426a.25.25,0,0,1,.249-.249h.181a.248.248,0,0,1,.158.056.246.246,0,0,0-.193-.091h-.181a.25.25,0,0,0-.249.249v4.426a.249.249,0,0,0,.091.193A.252.252,0,0,1,1204.835,1487.21Z" transform="translate(0 -1090.472)" fill="#eaeaea"/>
      <path id="Path_11413-2" data-name="Path 11413" d="M2811.23,1267.328h-.181a.25.25,0,0,1-.249-.249v-7.329a.25.25,0,0,1,.249-.249h.181a.25.25,0,0,1,.249.249v7.329A.25.25,0,0,1,2811.23,1267.328Z" transform="translate(-1572.646 -872.103)" fill="#c2c1c0"/>
      <path id="Path_11414-2" data-name="Path 11414" d="M2813.124,1261.4a.235.235,0,0,1,.037.131v7.329a.25.25,0,0,1-.249.249h-.181a.254.254,0,0,1-.131-.037.25.25,0,0,0,.212.118h.181a.25.25,0,0,0,.249-.249v-7.329A.25.25,0,0,0,2813.124,1261.4Z" transform="translate(-1574.408 -873.964)" fill="#a09f9f"/>
      <g id="Rectangle_19017-2" data-name="Rectangle 19017" transform="translate(1216.8 433.424)" fill="#fff" stroke="#707070" stroke-width="1">
        <rect width="10.17" height="1" stroke="none"/>
        <rect x="0.5" y="0.5" width="9.17" fill="none"/>
      </g>
    </g>
  </g>
</svg>
