<svg xmlns="http://www.w3.org/2000/svg" width="335" height="322.171" viewBox="0 0 335 322.171">
  <g id="illustration" transform="translate(-203.401 -35.199)">
    <g id="background" transform="translate(203.401 35.199)">
      <g id="lines" transform="translate(0 0)" opacity="0.1">
        <path id="Path_11422" data-name="Path 11422" d="M408.34,245.007c-33.476-.279-63.743-.558-85.712-.767-10.949-.07-19.806-.07-25.944-.139H287.2a4.3,4.3,0,0,1,.628.07c.418,0,1.046,0,1.813.07,1.6,0,4.045.07,7.044.07,6.137,0,14.994.07,25.944.139,21.968,0,52.236,0,85.712.07,33.476,0,63.743.07,85.642.209,10.949.07,19.806.209,25.944.279,3.069.07,5.44.139,7.044.209a11.149,11.149,0,0,1,2.441.209,9.446,9.446,0,0,1-2.441.139c-1.6.07-3.975.07-7.044.139-6.137.07-14.994.07-25.944,0C472.083,245.634,441.746,245.355,408.34,245.007Z" transform="translate(-194.41 -83.472)" fill="#7e84a3"/>
        <path id="Path_11423" data-name="Path 11423" d="M408.006,247.57c-32.987-5.3-62.837-10.112-84.526-13.6-10.81-1.674-19.527-3.069-25.665-3.975-3-.418-5.37-.767-6.974-1.046-.767-.14-1.395-.209-1.813-.279a4.306,4.306,0,0,0-.628-.07,4.6,4.6,0,0,0,.628.139c.418.07,1.046.209,1.813.349,1.6.279,3.975.628,6.974,1.116,6.067.976,14.855,2.3,25.665,4.045,21.689,3.278,51.608,7.811,84.665,12.832s62.976,9.555,84.6,12.972c10.81,1.743,19.6,3.138,25.595,4.184,3,.488,5.37.907,6.974,1.255a8.137,8.137,0,0,1,2.371.558,10.736,10.736,0,0,1-2.441-.209c-1.6-.209-3.975-.488-6.974-.976-6.067-.837-14.855-2.162-25.665-3.836C470.912,257.682,440.993,252.94,408.006,247.57Z" transform="translate(-194.773 -78.871)" fill="#7e84a3"/>
        <path id="Path_11424" data-name="Path 11424" d="M407.4,250.053c-31.732-10.252-60.4-19.527-81.248-26.223-10.391-3.278-18.83-6-24.688-7.811q-4.394-1.36-6.7-2.092c-.767-.209-1.325-.418-1.744-.488a2.255,2.255,0,0,0-.628-.139s.209.07.558.209c.418.139.976.349,1.744.558,1.534.488,3.766,1.255,6.7,2.162,5.858,1.883,14.227,4.533,24.619,7.811,20.853,6.556,49.655,15.552,81.457,25.525,31.8,9.9,60.6,18.97,81.388,25.595,10.391,3.347,18.83,6.067,24.618,8.02,2.929.976,5.161,1.744,6.625,2.3a14.426,14.426,0,0,1,2.3.907,12.11,12.11,0,0,1-2.371-.558c-1.534-.418-3.836-1.116-6.765-2.023-5.858-1.743-14.3-4.394-24.688-7.671C467.8,269.511,439.065,260.305,407.4,250.053Z" transform="translate(-195.984 -74.355)" fill="#7e84a3"/>
        <path id="Path_11425" data-name="Path 11425" d="M406.34,252.323c-29.64-14.925-56.49-28.385-75.948-38.148-9.694-4.812-17.575-8.718-23.084-11.437-2.72-1.325-4.812-2.371-6.277-3.069a15,15,0,0,0-1.674-.767c-.349-.139-.558-.279-.558-.209a3.324,3.324,0,0,0,.558.279c.349.209.907.488,1.6.837q2.2,1.151,6.277,3.138c5.44,2.72,13.32,6.625,23.084,11.507,19.527,9.624,46.517,22.875,76.3,37.521s56.769,27.9,76.227,37.59c9.694,4.882,17.575,8.857,23.014,11.647,2.72,1.395,4.812,2.511,6.207,3.278a9.671,9.671,0,0,1,2.092,1.255,13.846,13.846,0,0,1-2.3-.907c-1.465-.7-3.627-1.674-6.346-3-5.51-2.65-13.39-6.486-23.154-11.3C462.831,280.707,435.98,267.247,406.34,252.323Z" transform="translate(-197.92 -70.073)" fill="#7e84a3"/>
        <path id="Path_11426" data-name="Path 11426" d="M405,254.353c-26.85-19.179-51.19-36.544-68.764-49.1-8.787-6.207-15.971-11.3-20.922-14.785-2.441-1.744-4.394-3.069-5.719-3.975-.628-.418-1.116-.767-1.534-1.046a4.12,4.12,0,0,0-.558-.349s.139.139.488.418.837.628,1.465,1.046c1.325.976,3.208,2.3,5.649,4.045,4.952,3.487,12.065,8.578,20.922,14.785,17.714,12.414,42.193,29.57,69.253,48.54,27.059,18.9,51.539,36.056,69.113,48.609,8.787,6.277,15.9,11.368,20.783,14.925,2.441,1.813,4.324,3.208,5.579,4.115a16.869,16.869,0,0,1,1.883,1.534,11.74,11.74,0,0,1-2.092-1.255c-1.325-.907-3.278-2.162-5.788-3.906-5.021-3.417-12.2-8.439-20.992-14.646C456.118,290.9,431.778,273.531,405,254.353Z" transform="translate(-200.553 -66.139)" fill="#7e84a3"/>
        <path id="Path_11427" data-name="Path 11427" d="M403.184,256.292c-23.433-22.945-44.634-43.727-59.977-58.792-7.671-7.462-13.948-13.53-18.272-17.714q-3.243-3.138-5.021-4.812c-.558-.558-.976-.907-1.325-1.255a3.6,3.6,0,0,0-.488-.418l.418.418,1.255,1.255c1.116,1.116,2.79,2.79,4.952,4.882,4.324,4.184,10.531,10.252,18.272,17.714,15.483,14.925,36.893,35.5,60.535,58.3,23.642,22.736,45.053,43.309,60.465,58.373,7.671,7.532,13.878,13.6,18.133,17.854,2.092,2.092,3.766,3.766,4.882,4.952,1.116,1.116,1.674,1.743,1.6,1.813s-.7-.488-1.883-1.534-2.859-2.65-5.091-4.742c-4.394-4.115-10.67-10.182-18.411-17.644C447.818,300.019,426.617,279.236,403.184,256.292Z" transform="translate(-203.761 -63.839)" fill="#7e84a3"/>
        <path id="Path_11428" data-name="Path 11428" d="M401.117,257.908c-19.458-26.223-37.032-49.865-49.795-67.091-6.416-8.508-11.577-15.482-15.2-20.225-1.813-2.371-3.208-4.184-4.184-5.509-.488-.628-.837-1.046-1.116-1.395s-.418-.488-.418-.488a1.431,1.431,0,0,0,.349.488q.418.523,1.046,1.465c.976,1.255,2.3,3.138,4.115,5.509,3.627,4.812,8.787,11.716,15.2,20.295,12.9,17.087,30.686,40.589,50.423,66.6,19.667,26.013,37.451,49.586,50.283,66.672,6.416,8.578,11.507,15.552,15.064,20.364,1.743,2.441,3.138,4.324,3.975,5.579a14.158,14.158,0,0,1,1.325,2.022,14.486,14.486,0,0,1-1.6-1.813c-.976-1.255-2.441-3.069-4.254-5.44-3.627-4.742-8.857-11.647-15.343-20.155C438.15,307.773,420.505,284.061,401.117,257.908Z" transform="translate(-206.15 -60.783)" fill="#7e84a3"/>
        <path id="Path_11429" data-name="Path 11429" d="M398.928,259.117C384,230.314,370.474,204.3,360.71,185.4c-4.952-9.415-8.927-17.017-11.716-22.317-1.395-2.58-2.511-4.6-3.208-6.067-.349-.7-.628-1.186-.837-1.534s-.279-.558-.349-.488a3.176,3.176,0,0,0,.279.558c.209.349.418.907.767,1.6.7,1.395,1.813,3.487,3.138,6.067,2.79,5.3,6.765,12.9,11.716,22.317,9.973,18.83,23.712,44.7,38.915,73.367s28.942,54.607,38.776,73.437c4.952,9.415,8.857,17.087,11.577,22.387l3.069,6.137a23.139,23.139,0,0,1,.976,2.162,13.859,13.859,0,0,1-1.255-2.022c-.767-1.395-1.883-3.417-3.348-6-2.859-5.231-6.9-12.832-11.856-22.247C427.382,314,413.853,287.92,398.928,259.117Z" transform="translate(-210.268 -58.296)" fill="#7e84a3"/>
        <path id="Path_11430" data-name="Path 11430" d="M396.484,260.027c-10.043-30.686-19.109-58.443-25.734-78.6-3.348-10.043-6.067-18.133-7.881-23.782-.976-2.79-1.674-4.952-2.232-6.416-.279-.7-.418-1.255-.628-1.674-.14-.349-.209-.558-.209-.558a5.135,5.135,0,0,1,.139.558c.14.418.279.976.558,1.674q.732,2.3,2.092,6.486c1.883,5.649,4.533,13.739,7.881,23.782,6.765,20.085,16.11,47.772,26.432,78.389,10.322,30.547,19.667,58.3,26.292,78.389,3.348,10.043,5.928,18.2,7.741,23.851.907,2.79,1.534,5.021,2.022,6.486a11.063,11.063,0,0,1,.558,2.3,15.079,15.079,0,0,1-.907-2.232c-.558-1.465-1.325-3.626-2.3-6.416-1.953-5.579-4.673-13.669-8.09-23.712C415.593,318.47,406.526,290.713,396.484,260.027Z" transform="translate(-214.719 -56.485)" fill="#7e84a3"/>
        <path id="Path_11431" data-name="Path 11431" d="M393.993,260.612c-4.882-31.8-9.345-60.6-12.553-81.527-1.674-10.391-3-18.83-3.906-24.688-.488-2.929-.837-5.161-1.116-6.7-.139-.767-.209-1.325-.279-1.743A2.279,2.279,0,0,0,376,145.4a4.305,4.305,0,0,0,.07.628c.07.418.139.976.209,1.744.209,1.534.558,3.836.976,6.7.907,5.858,2.232,14.3,3.906,24.688,3.417,20.853,8.09,49.586,13.321,81.388,5.231,31.732,9.9,60.535,13.111,81.388,1.6,10.391,2.929,18.83,3.766,24.688.418,2.929.7,5.161.907,6.765a10.09,10.09,0,0,1,.209,2.371,9.054,9.054,0,0,1-.558-2.3c-.279-1.534-.7-3.766-1.186-6.7-.976-5.789-2.371-14.227-4.045-24.688C403.338,321.217,398.875,292.414,393.993,260.612Z" transform="translate(-219.505 -55.396)" fill="#7e84a3"/>
        <path id="Path_11432" data-name="Path 11432" d="M390.728,260.767c.279-32.15.558-61.3.767-82.364.07-10.531.07-19.039.139-24.967V144.3a4.306,4.306,0,0,1-.07.628c0,.418,0,.976-.07,1.743,0,1.6-.07,3.836-.07,6.765,0,5.928-.07,14.436-.139,24.967v82.364c0,32.151,0,61.3-.139,82.364-.07,10.531-.139,19.039-.279,24.967-.07,2.929-.139,5.231-.209,6.765a10.8,10.8,0,0,1-.209,2.371,9.083,9.083,0,0,1-.14-2.371c-.07-1.534-.07-3.836-.139-6.765-.07-5.928-.07-14.436-.07-24.967C390.17,322,390.379,292.918,390.728,260.767Z" transform="translate(-223.677 -55.063)" fill="#7e84a3"/>
        <path id="Path_11433" data-name="Path 11433" d="M371.867,260.533c5.51-31.732,10.461-60.465,14.088-81.248,1.744-10.391,3.138-18.83,4.115-24.619q.732-4.394,1.046-6.7c.139-.767.209-1.325.279-1.744a4.3,4.3,0,0,0,.07-.628,5.117,5.117,0,0,0-.139.558c-.07.418-.209.976-.349,1.744-.279,1.534-.7,3.836-1.186,6.7-.976,5.858-2.371,14.227-4.184,24.618-3.417,20.853-8.09,49.586-13.321,81.388-5.161,31.732-9.9,60.535-13.46,81.318-1.743,10.391-3.278,18.83-4.324,24.618q-.837,4.394-1.255,6.7a9.056,9.056,0,0,1-.558,2.3,10.085,10.085,0,0,1,.209-2.371c.209-1.534.558-3.836.976-6.7.907-5.858,2.232-14.227,3.975-24.688C361.337,320.929,366.288,292.2,371.867,260.533Z" transform="translate(-212.256 -55.457)" fill="#7e84a3"/>
        <path id="Path_11434" data-name="Path 11434" d="M353.254,259.839c10.6-30.477,20.225-58.094,27.2-78.11,3.417-9.973,6.207-18.063,8.16-23.712.907-2.79,1.674-4.952,2.162-6.486.209-.7.418-1.255.558-1.674a1.676,1.676,0,0,0,.139-.558s-.07.209-.209.558q-.209.628-.628,1.674c-.558,1.465-1.255,3.627-2.232,6.416-1.953,5.649-4.742,13.739-8.16,23.712-6.765,20.085-16.11,47.773-26.5,78.319-10.322,30.616-19.667,58.3-26.571,78.249-3.487,9.973-6.277,18.063-8.3,23.642-.976,2.79-1.813,4.952-2.371,6.416a16.931,16.931,0,0,1-.907,2.162,9.467,9.467,0,0,1,.628-2.3c.418-1.465,1.116-3.7,2.092-6.486,1.813-5.649,4.533-13.739,7.95-23.782C333.03,317.933,342.584,290.316,353.254,259.839Z" transform="translate(-200.918 -56.576)" fill="#7e84a3"/>
        <path id="Path_11435" data-name="Path 11435" d="M335.631,258.826c15.483-28.524,29.5-54.328,39.683-73.019,5.021-9.345,9.066-16.947,11.926-22.178,1.395-2.58,2.441-4.673,3.208-6.067.349-.7.628-1.186.837-1.6a3.184,3.184,0,0,0,.279-.558,2.757,2.757,0,0,0-.349.488c-.209.349-.488.907-.907,1.534-.767,1.395-1.883,3.417-3.278,6-2.859,5.231-6.9,12.832-11.926,22.178-9.973,18.76-23.782,44.7-38.985,73.367s-29.012,54.537-39.055,73.3c-5.021,9.345-9.206,16.877-12.065,22.108-1.465,2.58-2.58,4.6-3.348,6-.767,1.325-1.255,2.022-1.255,2.022a11.262,11.262,0,0,1,.976-2.162c.7-1.395,1.743-3.487,3.138-6.067,2.72-5.3,6.765-12.9,11.786-22.247C306.131,313.154,320.149,287.35,335.631,258.826Z" transform="translate(-190.122 -58.422)" fill="#7e84a3"/>
        <path id="Path_11436" data-name="Path 11436" d="M319.321,257.5c19.946-25.8,38.009-49.237,51.05-66.184,6.486-8.508,11.716-15.343,15.343-20.155,1.813-2.371,3.208-4.254,4.115-5.51a16.2,16.2,0,0,0,1.046-1.465,2.759,2.759,0,0,1,.349-.488s-.139.139-.418.488-.628.767-1.116,1.395c-.976,1.255-2.371,3.069-4.254,5.44-3.627,4.742-8.927,11.647-15.413,20.085-12.9,17.087-30.756,40.589-50.423,66.6s-37.521,49.516-50.492,66.533c-6.486,8.508-11.786,15.343-15.482,20.016-1.883,2.371-3.278,4.184-4.324,5.37a14.467,14.467,0,0,1-1.6,1.813,15.964,15.964,0,0,1,1.325-2.022c.907-1.255,2.3-3.138,4.045-5.579,3.557-4.812,8.787-11.716,15.2-20.225C281.382,306.669,299.375,283.306,319.321,257.5Z" transform="translate(-180.042 -60.934)" fill="#7e84a3"/>
        <path id="Path_11437" data-name="Path 11437" d="M304.918,255.806c23.851-22.526,45.471-42.96,61.163-57.745,7.741-7.393,14.088-13.39,18.412-17.575,2.162-2.092,3.836-3.7,4.952-4.812l1.255-1.255.418-.418s-.139.139-.488.418-.767.7-1.325,1.186c-1.186,1.116-2.859,2.72-5.021,4.742-4.394,4.184-10.67,10.182-18.481,17.575-15.552,14.925-36.893,35.5-60.6,58.234-23.642,22.735-45.053,43.309-60.675,58.164-7.811,7.393-14.157,13.39-18.551,17.435-2.232,2.022-3.906,3.627-5.091,4.673s-1.813,1.6-1.883,1.534.488-.628,1.6-1.813l4.882-4.882c4.324-4.184,10.531-10.252,18.342-17.714C259.447,298.766,281.067,278.332,304.918,255.806Z" transform="translate(-170.04 -64.05)" fill="#7e84a3"/>
        <path id="Path_11438" data-name="Path 11438" d="M292.754,253.828c27.2-18.691,51.887-35.638,69.741-47.912,8.857-6.137,16.04-11.159,21.062-14.576,2.441-1.743,4.394-3.069,5.719-4.045a16.231,16.231,0,0,1,1.465-1.046,2.761,2.761,0,0,0,.488-.349,2.094,2.094,0,0,0-.558.349c-.349.209-.837.558-1.534.976-1.325.907-3.278,2.232-5.789,3.905-5.021,3.487-12.2,8.439-21.062,14.576-17.714,12.414-42.193,29.57-69.253,48.47-26.99,18.97-51.539,36.056-69.322,48.33-8.927,6.137-16.11,11.089-21.132,14.436-2.511,1.674-4.463,3-5.788,3.836a15.727,15.727,0,0,1-2.092,1.255c-.07-.07.628-.558,1.883-1.534s3.208-2.3,5.649-4.115c4.952-3.487,12.065-8.578,20.992-14.715C240.866,289.465,265.485,272.518,292.754,253.828Z" transform="translate(-162.687 -66.368)" fill="#7e84a3"/>
        <path id="Path_11439" data-name="Path 11439" d="M282.829,251.675c29.919-14.367,57.048-27.408,76.645-36.823,9.764-4.742,17.714-8.578,23.154-11.3q4.08-1.988,6.277-3.138c.7-.349,1.255-.628,1.6-.837a3.18,3.18,0,0,1,.558-.279s-.209.07-.558.209c-.418.209-.976.418-1.674.767-1.465.7-3.627,1.743-6.346,3-5.51,2.65-13.39,6.486-23.154,11.228-19.527,9.694-46.517,22.945-76.3,37.59s-56.769,27.9-76.366,37.311c-9.764,4.742-17.714,8.508-23.224,11.089-2.79,1.325-4.882,2.3-6.346,2.929a11.569,11.569,0,0,1-2.3.907,10.584,10.584,0,0,1,2.092-1.186c1.395-.767,3.487-1.813,6.207-3.208,5.44-2.72,13.321-6.625,23.084-11.438C225.781,279.014,252.91,266.042,282.829,251.675Z" transform="translate(-156.667 -70.251)" fill="#7e84a3"/>
        <path id="Path_11440" data-name="Path 11440" d="M275.582,249.419c31.941-9.694,60.814-18.412,81.736-24.758,10.461-3.208,18.9-5.788,24.758-7.6q4.394-1.36,6.7-2.092c.767-.279,1.325-.418,1.743-.558a5.01,5.01,0,0,0,.558-.209,4.587,4.587,0,0,1-.628.139c-.418.139-.976.279-1.743.488-1.534.488-3.836,1.116-6.765,2.022-5.858,1.813-14.3,4.394-24.758,7.6-20.852,6.556-49.655,15.552-81.457,25.455-31.8,9.973-60.6,18.97-81.527,25.316-10.461,3.208-18.9,5.719-24.758,7.462-2.929.837-5.231,1.534-6.765,1.953a12.113,12.113,0,0,1-2.371.558,14.419,14.419,0,0,1,2.3-.907c1.534-.558,3.766-1.255,6.7-2.232,5.788-1.883,14.227-4.533,24.688-7.741C214.837,267.831,243.71,259.043,275.582,249.419Z" transform="translate(-152.279 -74.62)" fill="#7e84a3"/>
        <path id="Path_11441" data-name="Path 11441" d="M271.275,247c33.127-4.742,63.046-9,84.735-12.065,10.81-1.6,19.6-2.859,25.665-3.766,3-.488,5.37-.837,6.974-1.046.767-.139,1.395-.209,1.813-.279a4.6,4.6,0,0,0,.628-.139,4.3,4.3,0,0,0-.628.07c-.418.07-1.046.139-1.813.209-1.6.209-3.975.558-6.974.976-6.067.907-14.855,2.162-25.665,3.766-21.689,3.278-51.608,7.811-84.665,12.832s-62.976,9.555-84.665,12.693c-10.81,1.6-19.6,2.79-25.665,3.627-3.069.418-5.37.7-6.974.907a10.741,10.741,0,0,1-2.441.209,18.686,18.686,0,0,1,2.441-.558c1.6-.279,3.906-.7,6.974-1.186,6.067-.976,14.785-2.3,25.665-3.905C208.23,255.992,238.148,251.738,271.275,247Z" transform="translate(-149.647 -79.199)" fill="#7e84a3"/>
        <path id="Path_11442" data-name="Path 11442" d="M269.87,243.888c33.476.279,63.743.488,85.712.7,10.949.07,19.806.07,25.944.07h9.485a4.3,4.3,0,0,1-.628-.07c-.418,0-1.046,0-1.813-.07-1.6,0-4.045-.07-7.044-.07-6.137,0-14.994-.07-25.944-.07-21.968,0-52.236,0-85.712.07s-63.743.07-85.642-.07c-10.949-.07-19.806-.139-25.944-.279-3.069-.07-5.44-.139-7.044-.139a11.156,11.156,0,0,1-2.441-.209,9.443,9.443,0,0,1,2.441-.139c1.6-.07,3.975-.07,7.044-.139,6.137-.07,14.994-.07,25.944-.07C206.2,243.4,236.464,243.609,269.87,243.888Z" transform="translate(-148.8 -83.252)" fill="#7e84a3"/>
        <path id="Path_11443" data-name="Path 11443" d="M271.474,225.73c32.987,5.3,62.906,10.043,84.526,13.46,10.81,1.674,19.527,3,25.665,3.975,3,.418,5.37.767,6.974,1.046.767.139,1.395.209,1.813.279a4.3,4.3,0,0,0,.628.07,4.594,4.594,0,0,0-.628-.139c-.418-.07-1.046-.209-1.813-.349-1.6-.279-3.975-.628-6.974-1.116-6.067-.976-14.855-2.3-25.665-3.975-21.689-3.278-51.608-7.741-84.665-12.763-33.057-4.952-62.976-9.485-84.6-12.9-10.81-1.674-19.6-3.138-25.595-4.115-3-.488-5.37-.907-6.974-1.255a8.129,8.129,0,0,1-2.371-.558,10.736,10.736,0,0,1,2.441.209c1.6.209,3.975.488,6.974.907,6.067.837,14.855,2.162,25.665,3.836C208.567,215.688,238.486,220.43,271.474,225.73Z" transform="translate(-149.705 -72.258)" fill="#7e84a3"/>
        <path id="Path_11444" data-name="Path 11444" d="M276.012,207.95c31.732,10.182,60.465,19.458,81.248,26.153,10.391,3.278,18.83,5.928,24.688,7.811q4.394,1.36,6.7,2.092c.767.209,1.325.418,1.743.488a2.256,2.256,0,0,0,.628.139s-.209-.07-.558-.209c-.418-.14-.976-.349-1.744-.558-1.534-.488-3.766-1.255-6.7-2.162-5.858-1.883-14.3-4.533-24.688-7.811-20.853-6.486-49.655-15.482-81.527-25.386-31.8-9.9-60.6-18.9-81.457-25.525-10.391-3.348-18.83-6.067-24.619-7.95-2.929-.976-5.161-1.744-6.625-2.232a14.418,14.418,0,0,1-2.3-.907,12.114,12.114,0,0,1,2.371.558c1.534.418,3.836,1.116,6.765,1.953,5.858,1.744,14.3,4.394,24.688,7.671C215.547,188.493,244.28,197.7,276.012,207.95Z" transform="translate(-152.431 -61.411)" fill="#7e84a3"/>
        <path id="Path_11445" data-name="Path 11445" d="M283.517,190.939c29.64,14.855,56.49,28.315,76.018,38.079,9.764,4.812,17.644,8.718,23.084,11.438,2.72,1.325,4.812,2.371,6.277,3.069a15.018,15.018,0,0,0,1.674.767c.349.14.558.279.558.209a3.322,3.322,0,0,0-.558-.279c-.418-.209-.907-.488-1.6-.837q-2.2-1.151-6.277-3.138c-5.44-2.72-13.32-6.625-23.084-11.437-19.527-9.554-46.517-22.805-76.366-37.451-29.779-14.576-56.769-27.827-76.227-37.521-9.764-4.882-17.575-8.787-23.014-11.577-2.72-1.395-4.812-2.511-6.207-3.208A9.668,9.668,0,0,1,175.7,137.8a13.85,13.85,0,0,1,2.3.907c1.465.7,3.627,1.674,6.346,3,5.51,2.65,13.39,6.486,23.154,11.3C226.958,162.554,253.878,176.014,283.517,190.939Z" transform="translate(-156.937 -50.951)" fill="#7e84a3"/>
        <path id="Path_11446" data-name="Path 11446" d="M293.577,175.322c26.92,19.179,51.19,36.474,68.834,49.028,8.857,6.207,15.971,11.228,20.922,14.785,2.441,1.744,4.394,3.069,5.719,3.975.628.418,1.116.767,1.534,1.046a4.131,4.131,0,0,0,.558.349s-.139-.139-.488-.418-.837-.628-1.465-1.046c-1.325-.976-3.208-2.3-5.649-4.045-4.952-3.487-12.135-8.578-20.922-14.785-17.784-12.414-42.263-29.5-69.322-48.4s-51.538-35.986-69.183-48.54c-8.857-6.277-15.971-11.368-20.853-14.925-2.441-1.744-4.324-3.138-5.579-4.115A16.88,16.88,0,0,1,195.8,106.7a11.727,11.727,0,0,1,2.092,1.255c1.325.907,3.278,2.162,5.788,3.906,5.021,3.417,12.2,8.439,21.062,14.646C242.387,138.848,266.726,156.143,293.577,175.322Z" transform="translate(-163.022 -41.366)" fill="#7e84a3"/>
        <path id="Path_11447" data-name="Path 11447" d="M306.1,161.4c23.433,22.945,44.7,43.658,60.117,58.722,7.741,7.462,13.948,13.53,18.272,17.714q3.243,3.138,5.021,4.812c.558.558.976.907,1.325,1.255a3.6,3.6,0,0,0,.488.418l-.418-.418-1.255-1.255c-1.116-1.116-2.79-2.79-4.952-4.882-4.324-4.184-10.6-10.252-18.272-17.714-15.552-14.925-36.963-35.5-60.6-58.234-23.712-22.666-45.122-43.309-60.535-58.3-7.741-7.462-13.948-13.6-18.2-17.854-2.162-2.092-3.766-3.766-4.882-4.952-1.116-1.116-1.674-1.744-1.6-1.813s.7.488,1.883,1.534,2.859,2.65,5.091,4.742c4.394,4.115,10.67,10.112,18.412,17.575C261.4,117.743,282.667,138.456,306.1,161.4Z" transform="translate(-170.523 -31.683)" fill="#7e84a3"/>
        <path id="Path_11448" data-name="Path 11448" d="M320.605,149.62c19.458,26.153,37.1,49.865,49.865,67.021,6.416,8.508,11.577,15.413,15.2,20.225q2.72,3.557,4.184,5.44c.488.628.837,1.046,1.116,1.395s.418.488.418.488a1.432,1.432,0,0,0-.349-.488q-.418-.523-1.046-1.465c-.976-1.255-2.3-3.138-4.115-5.51-3.627-4.812-8.787-11.716-15.2-20.225-12.9-17.017-30.756-40.589-50.492-66.533s-37.521-49.516-50.353-66.6C263.418,74.788,258.257,67.884,254.77,63c-1.744-2.441-3.138-4.324-4.045-5.579A14.147,14.147,0,0,1,249.4,55.4a14.467,14.467,0,0,1,1.6,1.813c.976,1.255,2.441,3.069,4.254,5.44,3.627,4.742,8.927,11.577,15.343,20.155C283.5,99.825,301.148,123.467,320.605,149.62Z" transform="translate(-180.571 -24.574)" fill="#7e84a3"/>
        <path id="Path_11449" data-name="Path 11449" d="M336.926,140.014c14.994,28.8,28.524,54.816,38.357,73.646,4.952,9.415,8.927,17.017,11.716,22.247,1.395,2.58,2.511,4.6,3.208,6,.349.7.628,1.186.837,1.534s.279.558.349.488a3.183,3.183,0,0,0-.279-.558,11.794,11.794,0,0,1-.767-1.6c-.7-1.395-1.813-3.487-3.138-6.067-2.79-5.3-6.765-12.9-11.716-22.247-9.973-18.76-23.782-44.7-39.055-73.367-15.273-28.594-29.012-54.537-38.915-73.367C292.57,57.3,288.665,49.7,285.945,44.4l-3.069-6.137A23.1,23.1,0,0,1,281.9,36.1a13.869,13.869,0,0,1,1.255,2.022c.767,1.395,1.883,3.348,3.348,6,2.859,5.231,6.9,12.832,11.856,22.178C308.4,85.267,322,111.281,336.926,140.014Z" transform="translate(-190.586 -18.734)" fill="#7e84a3"/>
        <path id="Path_11450" data-name="Path 11450" d="M354.636,133.118c10.043,30.686,19.179,58.443,25.8,78.528,3.348,10.043,6.067,18.133,7.95,23.782.976,2.79,1.674,4.952,2.232,6.416q.418,1.046.628,1.674c.139.349.209.558.209.558a5.121,5.121,0,0,1-.14-.558c-.139-.418-.279-.976-.558-1.674q-.732-2.3-2.092-6.486c-1.883-5.649-4.6-13.739-7.95-23.782-6.835-20.085-16.18-47.773-26.571-78.319s-19.737-58.234-26.432-78.319c-3.348-10.043-6-18.2-7.741-23.851-.907-2.79-1.6-5.021-2.022-6.486a11.049,11.049,0,0,1-.558-2.3,15.084,15.084,0,0,1,.907,2.232c.558,1.465,1.325,3.627,2.3,6.416,1.953,5.579,4.742,13.669,8.09,23.712C335.457,74.745,344.593,102.5,354.636,133.118Z" transform="translate(-201.468 -14.558)" fill="#7e84a3"/>
        <path id="Path_11451" data-name="Path 11451" d="M373.34,128.912c4.952,31.8,9.415,60.6,12.623,81.457,1.674,10.391,3,18.83,3.975,24.688.488,2.859.837,5.161,1.116,6.7a15.089,15.089,0,0,0,.349,1.744,2.275,2.275,0,0,0,.14.558,4.3,4.3,0,0,0-.07-.628c-.07-.418-.139-.976-.209-1.744-.209-1.534-.558-3.836-1.046-6.7-.907-5.858-2.3-14.3-3.905-24.688-3.417-20.853-8.16-49.586-13.39-81.388-5.231-31.732-9.973-60.535-13.251-81.388C358,37.133,356.741,28.694,355.9,22.836c-.418-2.929-.767-5.161-.907-6.765a10.083,10.083,0,0,1-.209-2.371,9.058,9.058,0,0,1,.558,2.3q.418,2.3,1.255,6.7c1.046,5.788,2.441,14.227,4.115,24.619C363.994,68.307,368.458,97.11,373.34,128.912Z" transform="translate(-212.897 -11.957)" fill="#7e84a3"/>
        <path id="Path_11452" data-name="Path 11452" d="M391.967,127.667c-.279,32.151-.488,61.3-.7,82.364,0,10.531-.07,19.039-.07,24.967v8.508c0,.418,0,.628.07.628a4.306,4.306,0,0,1,.07-.628c0-.418,0-.976.07-1.743,0-1.6.07-3.836.07-6.765,0-5.928.07-14.436.07-24.967,0-21.131-.07-50.213-.139-82.364s-.07-61.3.07-82.364c.07-10.531.139-19.039.279-24.967.07-2.929.14-5.231.14-6.765a10.8,10.8,0,0,1,.209-2.371,9.076,9.076,0,0,1,.14,2.371c.07,1.534.07,3.836.139,6.765.07,5.928.07,14.436.07,24.967C392.455,66.365,392.246,95.517,391.967,127.667Z" transform="translate(-224.017 -11.2)" fill="#7e84a3"/>
        <path id="Path_11453" data-name="Path 11453" d="M394.658,129.2c-5.44,31.732-10.391,60.465-13.948,81.248-1.743,10.391-3.138,18.83-4.115,24.618q-.732,4.394-1.046,6.7c-.139.767-.209,1.325-.279,1.744a4.305,4.305,0,0,0-.07.628,5.13,5.13,0,0,0,.14-.558c.07-.418.209-.976.349-1.744.279-1.534.7-3.836,1.186-6.7.976-5.858,2.371-14.227,4.115-24.619,3.348-20.853,8.02-49.586,13.181-81.388S404,68.6,407.49,47.815c1.743-10.391,3.208-18.83,4.254-24.619q.837-4.394,1.255-6.7a9.059,9.059,0,0,1,.558-2.3,10.084,10.084,0,0,1-.209,2.371c-.209,1.534-.558,3.836-.976,6.7-.907,5.858-2.232,14.3-3.975,24.688C405.049,68.737,400.1,97.471,394.658,129.2Z" transform="translate(-219.268 -12.108)" fill="#7e84a3"/>
        <path id="Path_11454" data-name="Path 11454" d="M397.079,133.577c-10.6,30.546-20.155,58.164-27.129,78.18-3.417,9.973-6.207,18.133-8.09,23.712-.907,2.79-1.674,4.952-2.162,6.486-.209.7-.418,1.255-.558,1.674a1.676,1.676,0,0,0-.14.558s.07-.209.209-.558q.209-.628.628-1.674c.558-1.465,1.255-3.627,2.232-6.416,1.953-5.649,4.673-13.739,8.09-23.712,6.765-20.085,16.04-47.772,26.362-78.389,10.252-30.616,19.6-58.3,26.5-78.319,3.417-9.973,6.277-18.063,8.3-23.642.976-2.79,1.813-4.952,2.371-6.416A16.947,16.947,0,0,1,434.6,22.9a9.471,9.471,0,0,1-.628,2.3c-.418,1.465-1.116,3.7-2.092,6.486-1.813,5.649-4.533,13.739-7.95,23.782C417.3,75.483,407.679,103.1,397.079,133.577Z" transform="translate(-214.484 -14.738)" fill="#7e84a3"/>
        <path id="Path_11455" data-name="Path 11455" d="M399.423,140.765c-15.482,28.524-29.431,54.328-39.543,73.088-5.021,9.345-9.066,16.947-11.856,22.178-1.395,2.65-2.441,4.673-3.208,6.068-.349.7-.628,1.186-.837,1.6a3.179,3.179,0,0,0-.279.558,2.761,2.761,0,0,0,.349-.488c.209-.349.488-.907.907-1.534.767-1.395,1.883-3.417,3.278-6,2.79-5.231,6.9-12.832,11.926-22.178,9.973-18.83,23.712-44.774,38.846-73.437s28.942-54.607,38.985-73.3c5.021-9.345,9.136-16.947,12.065-22.108,1.465-2.58,2.58-4.6,3.348-6,.767-1.325,1.255-2.022,1.255-2.022a11.26,11.26,0,0,1-.976,2.162c-.7,1.395-1.743,3.487-3.069,6.067-2.72,5.3-6.765,12.9-11.716,22.247C428.854,86.367,414.905,112.241,399.423,140.765Z" transform="translate(-210.002 -19.067)" fill="#7e84a3"/>
        <path id="Path_11456" data-name="Path 11456" d="M401.633,150.411c-19.876,25.874-37.939,49.237-50.981,66.254-6.486,8.508-11.716,15.343-15.343,20.155-1.813,2.371-3.138,4.254-4.115,5.51a16.209,16.209,0,0,0-1.046,1.465,2.759,2.759,0,0,1-.349.488s.139-.139.418-.488.628-.767,1.116-1.395q1.464-1.883,4.184-5.44c3.627-4.742,8.857-11.647,15.343-20.155,12.9-17.087,30.686-40.659,50.353-66.672,19.6-26.013,37.451-49.586,50.423-66.533,6.486-8.508,11.786-15.343,15.483-20.016,1.813-2.371,3.278-4.184,4.324-5.37a9.93,9.93,0,0,1,1.6-1.813,15.942,15.942,0,0,1-1.325,2.022c-.907,1.255-2.3,3.138-4.045,5.579-3.557,4.812-8.718,11.716-15.2,20.225C439.572,101.174,421.579,124.607,401.633,150.411Z" transform="translate(-205.978 -24.877)" fill="#7e84a3"/>
        <path id="Path_11457" data-name="Path 11457" d="M403.66,162.392c-23.851,22.6-45.4,43.03-61.023,57.815-7.741,7.393-14.018,13.46-18.412,17.575-2.162,2.092-3.836,3.7-4.952,4.812l-1.255,1.255-.419.418s.14-.14.488-.418.767-.7,1.325-1.186c1.186-1.116,2.859-2.72,5.021-4.742,4.394-4.184,10.67-10.182,18.412-17.575,15.483-14.925,36.893-35.568,60.535-58.3,23.572-22.805,44.983-43.379,60.6-58.234,7.811-7.393,14.157-13.39,18.551-17.5,2.232-2.023,3.906-3.627,5.091-4.673s1.813-1.6,1.883-1.534-.488.628-1.6,1.813l-4.882,4.882c-4.254,4.184-10.531,10.252-18.272,17.714C449.062,119.362,427.512,139.8,403.66,162.392Z" transform="translate(-203.609 -32.046)" fill="#7e84a3"/>
        <path id="Path_11458" data-name="Path 11458" d="M405.3,176.283c-27.2,18.76-51.817,35.707-69.671,47.982-8.857,6.137-16.04,11.159-21.062,14.646-2.441,1.743-4.394,3.069-5.719,4.045A16.223,16.223,0,0,1,307.388,244a2.76,2.76,0,0,0-.488.349,2.093,2.093,0,0,0,.558-.349c.349-.209.837-.558,1.534-.976,1.325-.907,3.278-2.232,5.719-3.906,5.021-3.487,12.2-8.439,21.062-14.646,17.714-12.414,42.193-29.64,69.183-48.609s51.469-36.126,69.253-48.47c8.927-6.137,16.11-11.089,21.132-14.506,2.511-1.674,4.463-3,5.788-3.836a15.736,15.736,0,0,1,2.092-1.255c.07.07-.628.558-1.883,1.534s-3.208,2.3-5.649,4.115c-4.952,3.557-12.065,8.578-20.922,14.785C457.122,140.645,432.5,157.592,405.3,176.283Z" transform="translate(-200.372 -41.705)" fill="#7e84a3"/>
        <path id="Path_11459" data-name="Path 11459" d="M406.638,192.06c-29.919,14.436-56.978,27.478-76.645,36.893-9.764,4.742-17.644,8.648-23.154,11.3q-4.08,1.988-6.277,3.138c-.7.349-1.255.628-1.6.837a3.182,3.182,0,0,1-.558.279s.209-.07.558-.209c.418-.209.976-.418,1.674-.767,1.465-.7,3.627-1.743,6.346-3,5.51-2.65,13.39-6.556,23.154-11.3,19.527-9.624,46.447-22.875,76.227-37.59s56.7-27.966,76.3-37.451c9.764-4.742,17.714-8.578,23.224-11.159,2.72-1.325,4.882-2.3,6.346-2.929a11.575,11.575,0,0,1,2.3-.907,12.839,12.839,0,0,1-2.092,1.255c-1.395.767-3.487,1.813-6.207,3.208-5.44,2.72-13.32,6.625-23.084,11.437C463.616,164.582,436.557,177.693,406.638,192.06Z" transform="translate(-197.799 -51.381)" fill="#7e84a3"/>
        <path id="Path_11460" data-name="Path 11460" d="M407.651,209.141c-31.872,9.694-60.744,18.481-81.667,24.828-10.391,3.208-18.83,5.858-24.688,7.671-2.929.907-5.161,1.6-6.7,2.162-.767.279-1.325.418-1.744.558a5.033,5.033,0,0,0-.558.209,4.6,4.6,0,0,1,.628-.139c.418-.14.976-.279,1.744-.488,1.534-.488,3.836-1.186,6.765-2.023,5.858-1.813,14.3-4.394,24.758-7.6,20.852-6.556,49.656-15.622,81.457-25.595s60.6-19.039,81.457-25.455c10.461-3.208,18.9-5.788,24.758-7.462,2.929-.837,5.23-1.534,6.765-1.953a12.108,12.108,0,0,1,2.371-.558,14.418,14.418,0,0,1-2.3.907c-1.534.558-3.766,1.255-6.7,2.232-5.789,1.883-14.227,4.533-24.688,7.811C468.4,190.66,439.523,199.447,407.651,209.141Z" transform="translate(-195.953 -61.838)" fill="#7e84a3"/>
        <path id="Path_11461" data-name="Path 11461" d="M408.115,227.042c-33.127,4.742-63.046,9.066-84.735,12.2-10.81,1.6-19.6,2.929-25.665,3.836-3,.488-5.37.837-6.974,1.116-.767.139-1.395.209-1.813.279a4.6,4.6,0,0,0-.628.139,4.306,4.306,0,0,0,.628-.07c.418-.07,1.046-.139,1.813-.209,1.6-.209,3.975-.558,6.974-.976,6.067-.907,14.855-2.232,25.665-3.766,21.689-3.348,51.608-7.881,84.6-12.9,33.057-5.091,62.906-9.624,84.6-12.763,10.81-1.6,19.6-2.859,25.665-3.627,3.069-.418,5.37-.7,6.974-.907a10.738,10.738,0,0,1,2.441-.209,18.672,18.672,0,0,1-2.441.558c-1.6.279-3.905.7-6.974,1.186-6.067.976-14.785,2.371-25.665,3.975C471.161,217.976,441.242,222.3,408.115,227.042Z" transform="translate(-194.743 -72.808)" fill="#7e84a3"/>
      </g>
      <path id="Path_11462" data-name="Path 11462" d="M320.5,107.6c.488,1.186,9.345,23.5,9.345,23.5l9.833-3.487,10.391,8.369-9.9-18.481-8.718,2.859Z" transform="translate(-202.2 -41.181)" fill="#7e84a3" opacity="0.3"/>
      <path id="Path_11463" data-name="Path 11463" d="M355.17,71.3c0,.837-.07,17.017-.07,17.017l6.7.279,4.184,7.811-1.465-14.018-5.928-.418Z" transform="translate(-212.862 -29.386)" fill="#7e84a3" opacity="0.3"/>
      <path id="Path_11464" data-name="Path 11464" d="M452.369,104.2c-.349.976-8.3,25.665-8.3,25.665l-5.231-3.905L425.1,137.327l12.972-22.247,4.882,3.278Z" transform="translate(-234.715 -40.136)" fill="#7e84a3" opacity="0.3"/>
    </g>
    <g id="lines-2" data-name="lines" transform="translate(348.532 102.467)">
      <path id="Path_11472" data-name="Path 11472" d="M385.893,150.611c-.105.105-3.69-4.217-7.908-9.594S370.395,131.106,370.5,131s3.69,4.217,7.908,9.594C382.625,146.077,386,150.505,385.893,150.611Z" transform="translate(-370.498 -105.064)" fill="#1d1e27"/>
      <path id="Path_11473" data-name="Path 11473" d="M399,155.11c-.105,0-1.16-10.86-2.214-24.355s-1.9-24.355-1.687-24.355c.105,0,1.16,10.86,2.214,24.355C398.37,144.145,399.214,155.11,399,155.11Z" transform="translate(-369.162 -106.4)" fill="#1d1e27"/>
      <path id="Path_11474" data-name="Path 11474" d="M409.5,151.589c-.105-.105,2.847-6.537,6.537-14.55,3.8-8.013,6.959-14.339,7.064-14.339.105.105-2.847,6.537-6.537,14.55C412.769,145.157,409.606,151.589,409.5,151.589Z" transform="translate(-368.379 -105.515)" fill="#1d1e27"/>
      <path id="Path_11475" data-name="Path 11475" d="M405.1,240.7c.105-.105,3.585,4.323,7.8,9.7,4.217,5.483,7.486,10.016,7.38,10.122s-3.585-4.323-7.8-9.7C408.263,245.339,404.995,240.805,405.1,240.7Z" transform="translate(-368.617 -99.103)" fill="#1d1e27"/>
      <path id="Path_11476" data-name="Path 11476" d="M395.9,241.6c.105,0,1.054,10.86,1.9,24.355.949,13.5,1.581,24.461,1.371,24.461-.105,0-1.054-10.86-1.9-24.355C396.324,252.565,395.691,241.6,395.9,241.6Z" transform="translate(-369.12 -99.054)" fill="#1d1e27"/>
      <path id="Path_11477" data-name="Path 11477" d="M388.423,239.5c.105.105-2.847,6.537-6.748,14.444s-7.169,14.234-7.275,14.234c-.105-.105,2.847-6.537,6.748-14.444S388.317,239.395,388.423,239.5Z" transform="translate(-370.286 -99.169)" fill="#1d1e27"/>
    </g>
    <g id="plug_2" data-name="plug 2" transform="translate(386.882 154.145)">
      <path id="Path_11478" data-name="Path 11478" d="M542.547,213.666l-18.264-4.2L477.471,200.5l-1.371,7.275,46.918,8.962h.105l18.58,4.2C541.631,220.869,542.627,213.712,542.547,213.666Z" transform="translate(-404.909 -152.936)" fill="#b037b6"/>
      <path id="Path_11479" data-name="Path 11479" d="M436.437,166.4l20.454,2.425a30.421,30.421,0,0,1,26.78,33.844l-.527,4.217a30.421,30.421,0,0,1-33.844,26.78l-20.454-2.425a14.2,14.2,0,0,1-12.441-15.71l4.323-36.691A14.262,14.262,0,0,1,436.437,166.4Z" transform="translate(-408.157 -154.793)" fill="#b037b6"/>
      <path id="Path_11480" data-name="Path 11480" d="M431.254,231.558s8.751-9.384,11.492-35c2-18.767-4.217-29.838-4.217-29.838L436.1,166.4s4.112,27.2,1.476,33.633c-2.636,6.326-7.38,31.419-7.38,31.419Z" transform="translate(-407.404 -154.789)" fill="#1d1e27" opacity="0.3"/>
      <path id="Path_11481" data-name="Path 11481" d="M415.1,197.819c2.741-23.3,5.061-43.966,17.607-40.8,6.853,1.687,10.543,20.454,7.8,43.755s-10.649,39.959-17.607,40.8C410.881,242.945,412.357,221.225,415.1,197.819Z" transform="translate(-408.327 -155.316)" fill="#b037b6"/>
      <ellipse id="Ellipse_928" data-name="Ellipse 928" cx="42.595" cy="10.86" rx="42.595" ry="10.86" transform="matrix(0.116, -0.993, 0.993, 0.116, 0, 84.619)" fill="#b037b6"/>
      <ellipse id="Ellipse_929" data-name="Ellipse 929" cx="42.595" cy="10.86" rx="42.595" ry="10.86" transform="matrix(0.116, -0.993, 0.993, 0.116, 0, 84.619)" fill="#1d1e27" opacity="0.3"/>
      <path id="Path_11482" data-name="Path 11482" d="M422.4,241.558a8.467,8.467,0,0,0,3.268-1.582c1.9-1.371,3.9-4.217,5.8-7.907,3.8-7.486,6.853-18.767,8.329-31.419s1.054-24.355-.843-32.579c-.949-4.112-2.32-7.275-3.8-8.962A7.882,7.882,0,0,0,432.311,157a2.448,2.448,0,0,1,.949.316A5.391,5.391,0,0,1,435.368,159c1.581,1.792,3.058,4.955,4.006,9.067,2,8.224,2.425,19.927.949,32.684s-4.639,24.144-8.54,31.525a24.369,24.369,0,0,1-6.01,7.908,7.669,7.669,0,0,1-2.425,1.265A6.509,6.509,0,0,1,422.4,241.558Z" transform="translate(-407.827 -155.299)" fill="#1d1e27"/>
      <path id="Path_11483" data-name="Path 11483" d="M418.8,241.158a3.41,3.41,0,0,0,.949-.211,5.438,5.438,0,0,0,2.214-1.265c1.687-1.476,3.479-4.428,5.061-8.224,3.268-7.591,5.8-18.767,7.275-31.314s1.371-24.039-.105-32.052c-.738-4.006-1.792-7.275-3.058-9.173a6.271,6.271,0,0,0-1.792-1.9,4.808,4.808,0,0,0-.843-.422h.211a1.16,1.16,0,0,1,.633.316,5.306,5.306,0,0,1,1.9,1.9c1.371,1.9,2.425,5.166,3.163,9.278,1.582,8.118,1.687,19.716.211,32.263s-4.112,23.723-7.486,31.314c-1.687,3.8-3.479,6.642-5.272,8.224a5.685,5.685,0,0,1-2.32,1.265,2.059,2.059,0,0,1-.738.105C418.905,241.158,418.8,241.158,418.8,241.158Z" transform="translate(-408.023 -155.321)" fill="#1d1e27"/>
      <path id="Path_11484" data-name="Path 11484" d="M426.136,185.27c-.422,3.8-1.792,6.853-3.057,6.642-1.265-.105-1.792-3.374-1.371-7.169s1.792-6.853,3.058-6.642C425.925,178.206,426.557,181.474,426.136,185.27Z" transform="translate(-407.873 -154.154)" fill="#1d1e27"/>
      <path id="Path_11485" data-name="Path 11485" d="M423.736,209.67c-.422,3.8-1.792,6.853-3.058,6.642-1.265-.105-1.792-3.374-1.371-7.169s1.792-6.853,3.058-6.642C423.525,202.606,424.157,205.769,423.736,209.67Z" transform="translate(-408.004 -152.828)" fill="#1d1e27"/>
      <path id="Path_11486" data-name="Path 11486" d="M477.1,210.392l14.339,1.687,1.9-9.067L480.263,198.9Z" transform="translate(-404.854 -153.023)" fill="#b037b6"/>
      <path id="Path_11487" data-name="Path 11487" d="M490.6,212.184a18.9,18.9,0,0,1,.738-4.744A41.113,41.113,0,0,1,492.6,202.8a18.907,18.907,0,0,1-.738,4.745A41.158,41.158,0,0,1,490.6,212.184Z" transform="translate(-404.123 -152.811)" fill="#1d1e27"/>
      <path id="Path_11488" data-name="Path 11488" d="M480.718,193.3a6.951,6.951,0,0,1,.211.949,15.524,15.524,0,0,1,.211,2.636,38.13,38.13,0,0,1-.527,8.751,32.553,32.553,0,0,1-2.425,8.435,17.828,17.828,0,0,1-1.16,2.425c-.316.527-.527.843-.527.843-.105,0,.527-1.265,1.371-3.374a40.146,40.146,0,0,0,2.214-8.435,56.265,56.265,0,0,0,.633-8.646A31.929,31.929,0,0,1,480.718,193.3Z" transform="translate(-404.888 -153.326)" fill="#1d1e27"/>
    </g>
    <g id="plug_1" data-name="plug 1" transform="translate(204.231 148.879)">
      <path id="Path_11489" data-name="Path 11489" d="M204.038,214.165c31.735-6.853,64.525-13.812,96.05-20.665l1.581,7.169c-21,4.551-42.516,9.194-64.221,13.853-10.443,2.242-21.2,4.545-31.829,6.812" transform="translate(-204.038 -147.953)" fill="#b037b6"/>
      <path id="Path_11490" data-name="Path 11490" d="M359.539,226.021l-20.243,3.69a30.519,30.519,0,0,1-35.531-24.461l-.738-4.217A30.519,30.519,0,0,1,327.487,165.5l20.243-3.69A14.138,14.138,0,0,1,364.178,173.2l6.642,36.375A13.989,13.989,0,0,1,359.539,226.021Z" transform="translate(-227.958 -149.687)" fill="#b037b6"/>
      <path id="Path_11491" data-name="Path 11491" d="M342.642,162.405s-5.693,11.492-.738,36.8c3.585,18.556,12.757,27.307,12.757,27.307l2.425-.422s-11.914-24.882-11.281-31.63c.633-6.853-2.109-32.157-2.109-32.157Z" transform="translate(-225.928 -149.648)" opacity="0.3"/>
      <path id="Path_11492" data-name="Path 11492" d="M369,190.773c4.217,23.09,8.013,43.439-4.955,44.177-7.064.422-16.026-16.448-20.243-39.538s-1.582-41.33,4.955-44.177C359.726,146.386,364.786,167.683,369,190.773Z" transform="translate(-225.825 -150.287)" fill="#b037b6"/>
      <path id="Path_11493" data-name="Path 11493" d="M370.426,190.457c4.217,23.09,2.952,42.7-2.952,43.755s-14.128-16.764-18.345-39.854-2.952-42.7,2.952-43.755C357.984,149.443,366.208,167.367,370.426,190.457Z" transform="translate(-225.56 -150.286)" fill="#b037b6"/>
      <path id="Path_11494" data-name="Path 11494" d="M370.426,190.457c4.217,23.09,2.952,42.7-2.952,43.755s-14.128-16.764-18.345-39.854-2.952-42.7,2.952-43.755C357.984,149.443,366.208,167.367,370.426,190.457Z" transform="translate(-225.56 -150.286)" fill="#1d1e27" opacity="0.3"/>
      <path id="Path_11495" data-name="Path 11495" d="M389.51,176.821l-32.474,6.01c-.105,0-.105,0-.211-.105-2.425-3.268-3.057-6.537-1.792-9.805a.1.1,0,0,1,.105-.105l32.473-6.01a5.034,5.034,0,0,1,5.9,4.112h0A4.962,4.962,0,0,1,389.51,176.821Z" transform="translate(-225.14 -149.408)" fill="#e0e0e0"/>
      <path id="Path_11496" data-name="Path 11496" d="M389.53,176.829s.316-.105.843-.316a4.933,4.933,0,0,0,2.109-1.581,4.675,4.675,0,0,0,.949-3.9,4.874,4.874,0,0,0-3.479-3.8,6.5,6.5,0,0,0-3.163.105l-3.479.633c-2.425.422-5.061.949-7.7,1.476-5.483,1.054-11.492,2.109-17.713,3.268-.738.105-1.582.316-2.319.422h-.105v.211c-.106.211-.106.316-.211.527a3.79,3.79,0,0,0-.211,1.16,10.429,10.429,0,0,0,.422,4.428,6.993,6.993,0,0,0,.949,2l.633.949.105.211c0,.105.105.211.105.105h.422c1.476-.211,2.847-.527,4.217-.738,5.483-.949,10.332-1.9,14.55-2.636,4.112-.738,7.38-1.265,9.805-1.687,1.16-.211,2-.316,2.636-.422a.887.887,0,0,1,.633-.422,6.948,6.948,0,0,1-.949.211c-.633.105-1.582.316-2.636.527-2.32.422-5.693,1.054-9.805,1.9-4.112.738-9.067,1.687-14.444,2.741-1.371.211-2.741.527-4.217.738h-.738c-.105,0-.211-.211-.211-.211l-.105-.105-.211-.211-.633-.949a7.609,7.609,0,0,1-.949-2.109,9.889,9.889,0,0,1-.527-4.639,3.738,3.738,0,0,1,.316-1.16.805.805,0,0,1,.211-.527v-.105a.327.327,0,0,1,.105-.211c.105-.105.211-.211.316-.211h.105c.738-.105,1.582-.316,2.32-.422,6.326-1.16,12.336-2.214,17.713-3.268,2.741-.527,5.272-.949,7.8-1.371q1.9-.316,3.479-.633a6.117,6.117,0,0,1,3.374,0,5.191,5.191,0,0,1,2.636,8.224,4.589,4.589,0,0,1-2.214,1.581A1.821,1.821,0,0,1,389.53,176.829Z" transform="translate(-225.16 -149.416)" fill="#1d1e27"/>
      <path id="Path_11497" data-name="Path 11497" d="M394.208,202.315l-32.579,6.01c-2.32-3.058-3.268-6.326-1.792-9.911l32.579-6.01a5.034,5.034,0,0,1,5.9,4.112h0A5.145,5.145,0,0,1,394.208,202.315Z" transform="translate(-224.881 -148.018)" fill="#e0e0e0"/>
      <path id="Path_11498" data-name="Path 11498" d="M394.226,202.318s.316-.105.843-.316a6.028,6.028,0,0,0,2.109-1.582,4.675,4.675,0,0,0,.949-3.9,5.05,5.05,0,0,0-3.479-3.8,6.5,6.5,0,0,0-3.163.105l-3.479.633c-2.425.422-5.061.949-7.8,1.476-5.483,1.054-11.492,2.109-17.713,3.268-.843.211-1.687.316-2.636.527l.211-.211a8.718,8.718,0,0,0-.422,5.166,13.968,13.968,0,0,0,2.214,4.534l-.211-.105c9.384-1.687,17.607-3.163,23.406-4.217,2.847-.527,5.166-.843,6.748-1.16.738-.105,1.371-.211,1.792-.316a2.951,2.951,0,0,1,.633-.105,3.4,3.4,0,0,1-.633.211c-.422.105-1.054.211-1.792.422-1.581.316-3.9.738-6.748,1.371-5.8,1.054-13.917,2.636-23.406,4.428h-.211l-.105-.105a12.477,12.477,0,0,1-2.32-4.745,9.784,9.784,0,0,1,.422-5.483l.105-.105h.105c.843-.105,1.687-.316,2.636-.527,6.326-1.16,12.336-2.214,17.818-3.268,2.741-.527,5.377-.949,7.8-1.371q1.9-.316,3.479-.633a6.117,6.117,0,0,1,3.374,0,5.191,5.191,0,0,1,2.636,8.224,4.59,4.59,0,0,1-2.214,1.582Z" transform="translate(-224.9 -148.02)" fill="#1d1e27"/>
      <path id="Path_11499" data-name="Path 11499" d="M348.671,151.2a10.369,10.369,0,0,0-2.636,2.425c-1.371,1.9-2.53,5.166-3.268,9.278-1.476,8.224-1.054,19.927,1.265,32.579,2.32,12.547,6.115,23.617,10.333,30.892,2.109,3.585,4.323,6.221,6.326,7.486a7.483,7.483,0,0,0,3.374,1.16,2.167,2.167,0,0,1-.949,0,6.324,6.324,0,0,1-2.53-.949c-2-1.265-4.323-3.9-6.537-7.486-4.323-7.275-8.224-18.345-10.543-31s-2.636-24.355-1.054-32.684c.738-4.112,2-7.38,3.479-9.278a6.513,6.513,0,0,1,2-1.9A2.165,2.165,0,0,1,348.671,151.2Z" transform="translate(-225.842 -150.252)" fill="#1d1e27"/>
      <path id="Path_11500" data-name="Path 11500" d="M352.2,150.511a4.809,4.809,0,0,0-.843.422,6.272,6.272,0,0,0-1.792,1.9,23.013,23.013,0,0,0-2.425,9.278c-.843,8.224-.105,19.611,2.214,32.052,2.32,12.336,5.693,23.3,9.489,30.681,1.9,3.69,3.8,6.431,5.588,7.908a5.437,5.437,0,0,0,2.214,1.265,1.677,1.677,0,0,0,.949.105h-.211a2.058,2.058,0,0,1-.738-.105,5.948,5.948,0,0,1-2.425-1.265c-1.9-1.476-3.9-4.217-5.8-7.908-3.9-7.38-7.38-18.345-9.7-30.787-2.214-12.441-2.952-23.933-2-32.157.422-4.112,1.371-7.38,2.636-9.384a6.378,6.378,0,0,1,1.9-1.9c.211-.211.527-.211.633-.316C352.1,150.511,352.2,150.511,352.2,150.511Z" transform="translate(-225.578 -150.3)" fill="#1d1e27"/>
      <path id="Path_11501" data-name="Path 11501" d="M290.5,199.7l2.425,9.173,12.968-1.792V195.9Z" transform="translate(-228.611 -147.822)" fill="#b037b6"/>
      <path id="Path_11502" data-name="Path 11502" d="M307.677,213.939a6.238,6.238,0,0,1-.633-.843c-.316-.527-.843-1.371-1.371-2.32a31.636,31.636,0,0,1-2.741-8.435,33.941,33.941,0,0,1-.527-8.856,12.455,12.455,0,0,1,.422-2.636q.158-.949.316-.949c.105,0-.105,1.371-.211,3.69a39.03,39.03,0,0,0,.633,8.751,38.112,38.112,0,0,0,2.636,8.435A32.322,32.322,0,0,1,307.677,213.939Z" transform="translate(-227.97 -148.148)" fill="#1d1e27"/>
      <path id="Path_11503" data-name="Path 11503" d="M293.137,208.878a27.244,27.244,0,0,1-1.582-4.534A22.454,22.454,0,0,1,290.5,199.6a27.248,27.248,0,0,1,1.582,4.534A22.457,22.457,0,0,1,293.137,208.878Z" transform="translate(-228.611 -147.622)" fill="#1d1e27"/>
    </g>
  </g>
</svg>
