<svg xmlns="http://www.w3.org/2000/svg" width="52" height="18" viewBox="0 0 52 18">
  <g id="add_group" data-name="add group" transform="translate(-255 -104)">
    <text id="Add" transform="translate(281 118)" fill="#1d1e27" font-size="13" font-family="OpenSans-Bold, Open Sans" font-weight="700"><tspan x="0" y="0">Add</tspan></text>
    <g id="users" transform="translate(254.5 103.5)">
      <path id="Path_11360" data-name="Path 11360" d="M9.742,25.591v-1.03A2.061,2.061,0,0,0,7.682,22.5H3.561A2.061,2.061,0,0,0,1.5,24.561v1.03" transform="translate(0 -11.818)" fill="none" stroke="#1d1e27" stroke-linecap="round" stroke-linejoin="round" stroke-width="2"/>
      <path id="Path_11361" data-name="Path 11361" d="M11.621,6.561A2.061,2.061,0,1,1,9.561,4.5,2.061,2.061,0,0,1,11.621,6.561Z" transform="translate(-3.939)" fill="none" stroke="#1d1e27" stroke-linecap="round" stroke-linejoin="round" stroke-width="2"/>
      <path id="Path_11362" data-name="Path 11362" d="M31.545,25.719v-1.03A2.061,2.061,0,0,0,30,22.7" transform="translate(-18.712 -11.946)" fill="none" stroke="#1d1e27" stroke-linecap="round" stroke-linejoin="round" stroke-width="2"/>
      <path id="Path_11363" data-name="Path 11363" d="M24,4.695a2.061,2.061,0,0,1,0,3.992" transform="translate(-14.773 -0.128)" fill="none" stroke="#1d1e27" stroke-linecap="round" stroke-linejoin="round" stroke-width="2"/>
      <path id="Path_11505" data-name="Path 11505" d="M30,12v6.272" transform="translate(-14.031 -7.5)" fill="none" stroke="#1d1e27" stroke-linecap="round" stroke-linejoin="round" stroke-width="2"/>
      <path id="Path_11506" data-name="Path 11506" d="M31.772,16.5H25.5" transform="translate(-12.667 -8.864)" fill="none" stroke="#1d1e27" stroke-linecap="round" stroke-linejoin="round" stroke-width="2"/>
    </g>
  </g>
</svg>
