<svg xmlns="http://www.w3.org/2000/svg" xmlns:xlink="http://www.w3.org/1999/xlink" width="33.23" height="46.763" viewBox="0 0 33.23 46.763">
  <defs>
    <linearGradient id="linear-gradient" x1="0.259" y1="0.559" x2="1.19" y2="0.261" gradientUnits="objectBoundingBox">
      <stop offset="0" stop-color="#b037b6"/>
      <stop offset="1" stop-color="#9741ec"/>
    </linearGradient>
    <linearGradient id="linear-gradient-2" x1="0.082" y1="1.092" x2="1.909" y2="-0.808" xlink:href="#linear-gradient"/>
    <linearGradient id="linear-gradient-3" x1="-0.796" y1="1.084" x2="2.889" y2="-0.573" xlink:href="#linear-gradient"/>
    <linearGradient id="linear-gradient-4" x1="-5.015" y1="2.956" x2="5.382" y2="-1.683" xlink:href="#linear-gradient"/>
    <linearGradient id="linear-gradient-5" x1="-3.444" y1="2.112" x2="2.858" y2="-0.47" xlink:href="#linear-gradient"/>
  </defs>
  <g id="logo" transform="translate(-226.032 -59.725)">
    <path id="Path_11541" data-name="Path 11541" d="M408.075,106.488l-1.057-1.347c-5.2-6.648-11.1-14.182-14.37-23.182a16.271,16.271,0,0,1,1.082-13.816,16.54,16.54,0,0,1,11.25-8.122,17.043,17.043,0,0,1,7.832.358h0a16.3,16.3,0,0,1,12.009,16.1,23.479,23.479,0,0,1-1.568,6.861c-2.233,6.315-9.034,16.279-14.046,21.878Zm.034-43.9a13.759,13.759,0,0,0-2.591.239,13.9,13.9,0,0,0-9.307,6.725,13.456,13.456,0,0,0-.878,11.421c2.9,7.977,8.08,14.889,12.87,21.034,4.7-5.565,10.458-14.267,12.358-19.628a20.79,20.79,0,0,0,1.406-6,13.456,13.456,0,0,0-9.938-13.262A14.7,14.7,0,0,0,408.109,62.586Z" transform="translate(-165.568)" fill="url(#linear-gradient)"/>
    <path id="Path_11542" data-name="Path 11542" d="M498.947,311.34c-2.668,0-5.335-.009-8,.009-.341,0-.46-.077-.452-.435a21.188,21.188,0,0,0,0-2.327,2.667,2.667,0,0,1,1.355-2.531,13.794,13.794,0,0,1,8.037-1.977,13.062,13.062,0,0,1,5.983,1.858,2.991,2.991,0,0,1,1.543,2.9c-.043.537-.009,1.074-.009,1.619,0,.895,0,.895-.886.895Q502.731,311.336,498.947,311.34Zm-.026-1.849h2.915c1.074,0,2.156.009,3.23-.009.145,0,.383-.119.409-.222a1.348,1.348,0,0,0-.818-1.824,11.888,11.888,0,0,0-11.4-.043,1.41,1.41,0,0,0-.869,1.577c.06.52.009.528.528.528C494.924,309.491,496.918,309.491,498.921,309.491Z" transform="translate(-256.023 -223.484)" fill="url(#linear-gradient-2)"/>
    <path id="Path_11543" data-name="Path 11543" d="M544.671,199.895a4.2,4.2,0,1,1,4.21-4.151A4.178,4.178,0,0,1,544.671,199.895Zm.009-6.477a2.3,2.3,0,0,0-.026,4.594,2.351,2.351,0,0,0,2.318-2.267A2.323,2.323,0,0,0,544.68,193.418Z" transform="translate(-301.764 -120.544)" fill="url(#linear-gradient-3)"/>
    <path id="Path_11544" data-name="Path 11544" d="M625.751,166.474l.3-.034c.315.026.281-.315.273-.384A3.02,3.02,0,0,0,623.7,163.5c-.128,0-.341.034-.332.3h0a3.884,3.884,0,0,1-.008.545c-.026.23.068.281.281.324a1.823,1.823,0,0,1,1.492,1.313c.051.162.043.392.145.469s.307.034.477.026Z" transform="translate(-377.568 -94.931)" fill="url(#linear-gradient-4)"/>
    <path id="Path_11545" data-name="Path 11545" d="M645.326,125.274h0a4.085,4.085,0,0,1-3.307-3.068,4.847,4.847,0,0,1-.119-.869c-.034-.324-.409-.349-.511-.358h-.026c.085.009.145.017-.068,0h-.077a.355.355,0,0,0-.418.358,3.426,3.426,0,0,0,.017.418,5.244,5.244,0,0,0,3.06,4.227,5.113,5.113,0,0,0,1.227.375.461.461,0,0,0,.58-.349c0-.043.009-.077.009-.119h0c.009-.077.009-.153.017-.239A.411.411,0,0,0,645.326,125.274Z" transform="translate(-393.529 -56.031)" fill="url(#linear-gradient-5)"/>
  </g>
</svg>
