<svg xmlns="http://www.w3.org/2000/svg" width="24.766" height="22.845" viewBox="0 0 24.766 22.845">
  <g id="alert" transform="translate(-11.581 -8)">
    <path id="Path_11417" data-name="Path 11417" d="M26.213,9.586A2.6,2.6,0,0,0,23.98,8a2.7,2.7,0,0,0-2.233,1.586L12.073,26.865a2.729,2.729,0,0,0-.194,2.783,2.757,2.757,0,0,0,2.524,1.2H33.526a2.722,2.722,0,0,0,2.524-1.2,2.729,2.729,0,0,0-.194-2.783Z" transform="translate(0 0)" fill="#f0142f"/>
    <g id="Group_459" data-name="Group 459" transform="translate(22.436 11.241)">
      <path id="Path_11418" data-name="Path 11418" d="M47.4,61.9a1.4,1.4,0,1,0,1.4,1.4A1.377,1.377,0,0,0,47.4,61.9Z" transform="translate(-45.855 -48.282)" fill="#f5f6fa"/>
      <path id="Path_11419" data-name="Path 11419" d="M47.138,35.87c.5,0,.968-.645,1.039-1.4l.538-9.174a1.3,1.3,0,0,0-1.326-1.4h-.466A1.318,1.318,0,0,0,45.6,25.3l.538,9.174C46.171,35.225,46.636,35.87,47.138,35.87Z" transform="translate(-45.596 -23.9)" fill="#f5f6fa"/>
    </g>
  </g>
</svg>
