<svg xmlns="http://www.w3.org/2000/svg" width="28" height="28" viewBox="0 0 28 28">
  <g id="icon" transform="translate(0 -3)">
    <rect id="Rectangle_19011" data-name="Rectangle 19011" width="28" height="28" rx="14" transform="translate(0 3)" fill="#1d1e27"/>
    <path id="cross" d="M12.48,9.962h0L9.446,6.928l3.034-3.034h0a.313.313,0,0,0,0-.442L11.046,2.019a.313.313,0,0,0-.442,0h0L7.571,5.053,4.537,2.019h0a.313.313,0,0,0-.442,0L2.662,3.452a.313.313,0,0,0,0,.442h0L5.7,6.928,2.662,9.962h0a.313.313,0,0,0,0,.442L4.1,11.837a.313.313,0,0,0,.442,0h0L7.571,8.8,10.6,11.837h0a.313.313,0,0,0,.442,0L12.479,10.4a.313.313,0,0,0,0-.442Z" transform="translate(6.429 10.072)" fill="#f5f6fa"/>
  </g>
</svg>
