<svg xmlns="http://www.w3.org/2000/svg" width="53" height="50.509" viewBox="0 0 53 50.509">
  <g id="check_mark_accept_icon" transform="translate(0.8 0.219)">
    <path id="Path_11415" data-name="Path 11415" d="M50.7,25.035c0,2.434-3.319,4.425-3.982,6.858s.664,5.973-.664,7.743c-1.549,1.991-5.31,1.77-7.3,3.1s-2.876,5.088-5.31,5.973c-2.212.664-5.088-1.77-7.743-1.77-2.434,0-5.31,2.434-7.743,1.77s-3.319-4.425-5.31-5.973-5.752-1.106-7.3-3.1c-1.327-1.991,0-5.531-.664-7.743S.7,27.69.7,25.035c0-2.434,3.319-4.425,3.982-6.858s-.664-5.973.664-7.743c1.77-1.991,5.531-1.77,7.522-3.1s2.876-5.088,5.31-5.973c2.212-.664,5.088,1.77,7.743,1.77,2.434,0,5.31-2.434,7.743-1.77s3.319,4.425,5.31,5.973,5.752,1.106,7.3,3.1c1.327,1.991,0,5.531.664,7.743C47.381,20.611,50.7,22.6,50.7,25.035Z" transform="translate(0 0)" fill="none" stroke="#b037b6" stroke-linecap="round" stroke-linejoin="round" stroke-width="3"/>
    <path id="Path_11416" data-name="Path 11416" d="M7.9,17.353l7.766,7.478L31.484,9.3" transform="translate(6.008 7.97)" fill="none" stroke="#b037b6" stroke-linecap="round" stroke-linejoin="round" stroke-width="3"/>
  </g>
</svg>
