<svg xmlns="http://www.w3.org/2000/svg" width="20.332" height="11.847" viewBox="0 0 20.332 11.847">
  <path id="Symbol" d="M11.568,1c6.074,0,10.159-4.525,10.159-5.927s-4.1-5.92-10.159-5.92c-5.986,0-10.173,4.519-10.173,5.92S5.568,1,11.568,1Zm0-1.34c-4.72,0-8.457-3.63-8.457-4.587,0-.8,3.736-4.58,8.457-4.58,4.7,0,8.442,3.78,8.442,4.58C20.01-3.972,16.266-.342,11.568-.342Zm0-.916a3.845,3.845,0,0,0,3.973-3.671,3.808,3.808,0,0,0-3.973-3.664A3.808,3.808,0,0,0,7.58-4.929,3.858,3.858,0,0,0,11.568-1.258Zm-.007-2.488a1.241,1.241,0,0,1-1.287-1.183,1.241,1.241,0,0,1,1.287-1.183,1.241,1.241,0,0,1,1.287,1.183A1.241,1.241,0,0,1,11.561-3.746Z" transform="translate(-1.395 10.849)" fill="rgba(128,128,128,0.35)"/>
</svg>
