<svg xmlns="http://www.w3.org/2000/svg" width="25" height="25" viewBox="0 0 25 25">
  <g id="icon" transform="translate(-20 -284)">
    <circle id="Ellipse_913" data-name="Ellipse 913" cx="12.5" cy="12.5" r="12.5" transform="translate(20 284)" fill="#1d1e27"/>
    <path id="map-pin" d="M2.666,7.545v3.73l.524.786a.286.286,0,0,0,.475,0l.524-.786V7.545a4.02,4.02,0,0,1-1.524,0ZM3.428,0A3.428,3.428,0,1,0,6.856,3.428,3.428,3.428,0,0,0,3.428,0Zm0,1.809A1.621,1.621,0,0,0,1.809,3.428a.286.286,0,0,1-.571,0,2.193,2.193,0,0,1,2.19-2.19.286.286,0,0,1,0,.571Z" transform="translate(29.522 290.927)" fill="#f5f6fa"/>
  </g>
</svg>
