<svg xmlns="http://www.w3.org/2000/svg" width="17" height="17" viewBox="0 0 17 17">
  <g id="settings" transform="translate(-1 -1)">
    <path id="Path_11371" d="M19.515,16.508A3.008,3.008,0,1,1,16.508,13.5,3.008,3.008,0,0,1,19.515,16.508Z" transform="translate(-7.008 -7.008)" fill="none" stroke="#f5f6fa" stroke-linecap="round" stroke-linejoin="round" stroke-width="1"/>
    <path id="Path_11372" d="M14.882,11.682a1.2,1.2,0,0,0,.24,1.324l.044.044a1.455,1.455,0,1,1-2.058,2.058l-.044-.044a1.21,1.21,0,0,0-2.051.858v.124a1.455,1.455,0,0,1-2.909,0V15.98a1.2,1.2,0,0,0-.785-1.1,1.2,1.2,0,0,0-1.324.24l-.044.044a1.455,1.455,0,1,1-2.058-2.058l.044-.044a1.21,1.21,0,0,0-.858-2.051H2.955a1.455,1.455,0,0,1,0-2.909H3.02a1.2,1.2,0,0,0,1.1-.785,1.2,1.2,0,0,0-.24-1.324l-.044-.044A1.455,1.455,0,1,1,5.893,3.893l.044.044a1.2,1.2,0,0,0,1.324.24h.058a1.2,1.2,0,0,0,.727-1.1V2.955a1.455,1.455,0,0,1,2.909,0V3.02a1.21,1.21,0,0,0,2.051.858l.044-.044a1.455,1.455,0,1,1,2.058,2.058l-.044.044a1.2,1.2,0,0,0-.24,1.324v.058a1.2,1.2,0,0,0,1.1.727h.124a1.455,1.455,0,0,1,0,2.909H15.98a1.2,1.2,0,0,0-1.1.727Z" transform="translate(0 0)" fill="none" stroke="#f5f6fa" stroke-linecap="round" stroke-linejoin="round" stroke-width="1"/>
  </g>
</svg>
