<svg xmlns="http://www.w3.org/2000/svg" width="15.414" height="17.016" viewBox="0 0 15.414 17.016">
  <g id="share" transform="translate(-4 -2.5)">
    <path id="Path_11373" d="M27.3,5.4A2.4,2.4,0,1,1,24.9,3,2.4,2.4,0,0,1,27.3,5.4Z" transform="translate(-8.391)" fill="none" stroke="#000" stroke-linecap="round" stroke-linejoin="round" stroke-width="1"/>
    <path id="Path_11374" d="M9.3,15.9a2.4,2.4,0,1,1-2.4-2.4A2.4,2.4,0,0,1,9.3,15.9Z" transform="translate(0 -4.895)" fill="none" stroke="#000" stroke-linecap="round" stroke-linejoin="round" stroke-width="1"/>
    <path id="Path_11375" d="M27.3,26.4A2.4,2.4,0,1,1,24.9,24,2.4,2.4,0,0,1,27.3,26.4Z" transform="translate(-8.391 -9.789)" fill="none" stroke="#000" stroke-linecap="round" stroke-linejoin="round" stroke-width="1"/>
    <path id="Path_11376" d="M12.885,20.265l5.469,3.187" transform="translate(-3.909 -8.048)" fill="none" stroke="#000" stroke-linecap="round" stroke-linejoin="round" stroke-width="1"/>
    <path id="Path_11377" d="M18.346,9.765l-5.461,3.187" transform="translate(-3.909 -3.153)" fill="none" stroke="#000" stroke-linecap="round" stroke-linejoin="round" stroke-width="1"/>
  </g>
</svg>
